<svg xmlns="http://www.w3.org/2000/svg" xmlns:xlink="http://www.w3.org/1999/xlink" width="512" zoomAndPan="magnify" viewBox="0 0 384 383.999986" height="512" preserveAspectRatio="xMidYMid meet" version="1.0"><defs><clipPath id="1ec63816ed"><path d="M 30.265625 15 L 192 15 L 192 369 L 30.265625 369 Z M 30.265625 15 " clip-rule="nonzero"/></clipPath><clipPath id="96f06850e4"><path d="M 222 15 L 353.515625 15 L 353.515625 369 L 222 369 Z M 222 15 " clip-rule="nonzero"/></clipPath></defs><g clip-path="url(#1ec63816ed)"><path fill="#5988ff" d="M 30.28125 191.992188 C 30.28125 254.292969 62.480469 309.074219 111.136719 340.605469 L 111.136719 274.519531 C 102.886719 264.921875 96.042969 254.058594 90.949219 242.28125 L 141.707031 242.28125 L 141.707031 356.429688 C 157.46875 362.726562 174.367188 366.820312 191.996094 368.332031 L 191.996094 15.667969 C 101.402344 23.410156 30.28125 99.394531 30.28125 191.992188 Z M 141.695312 83.570312 L 141.695312 191.992188 L 80.570312 191.992188 C 80.570312 146.019531 105.050781 105.765625 141.695312 83.570312 Z M 141.695312 83.570312 " fill-opacity="1" fill-rule="nonzero"/></g><g clip-path="url(#96f06850e4)"><path fill="#5988ff" d="M 343.566406 79.070312 C 332.085938 65.238281 318.550781 53.1875 303.421875 43.378906 L 303.421875 143.621094 L 272.839844 168.054688 L 272.839844 27.566406 C 257.5 21.445312 241.085938 17.398438 223.976562 15.800781 L 222.550781 15 L 222.550781 369 L 223.765625 368.21875 C 240.960938 366.625 257.4375 362.578125 272.839844 356.429688 L 272.839844 232.929688 L 303.421875 257.359375 L 303.421875 357.605469 C 318.550781 347.792969 332.085938 335.746094 343.566406 321.914062 C 347.152344 317.585938 350.542969 313.082031 353.710938 308.417969 L 353.710938 233.175781 L 312.8125 200.503906 L 353.710938 167.832031 L 353.710938 92.566406 C 350.542969 87.902344 347.140625 83.398438 343.566406 79.070312 Z M 343.566406 79.070312 " fill-opacity="1" fill-rule="nonzero"/></g></svg>