<svg xmlns="http://www.w3.org/2000/svg" xmlns:xlink="http://www.w3.org/1999/xlink" width="50" zoomAndPan="magnify" viewBox="0 0 37.5 37.499999" height="50" preserveAspectRatio="xMidYMid meet" version="1.0"><defs><clipPath id="57f952b488"><path d="M 1.480469 1.480469 L 35.527344 1.480469 L 35.527344 35.527344 L 1.480469 35.527344 Z M 1.480469 1.480469 " clip-rule="nonzero"/></clipPath></defs><g clip-path="url(#57f952b488)"><path fill="#5271ff" d="M 18.503906 1.480469 C 9.117188 1.480469 1.480469 9.117188 1.480469 18.503906 C 1.480469 27.890625 9.117188 35.527344 18.503906 35.527344 C 27.890625 35.527344 35.527344 27.890625 35.527344 18.503906 C 35.527344 9.117188 27.890625 1.480469 18.503906 1.480469 Z M 26.867188 25.898438 L 10.140625 25.898438 L 10.140625 23.097656 L 26.867188 23.097656 Z M 26.867188 19.90625 L 10.140625 19.90625 L 10.140625 17.101562 L 26.867188 17.101562 Z M 26.867188 13.910156 L 10.140625 13.910156 L 10.140625 11.109375 L 26.867188 11.109375 Z M 26.867188 13.910156 " fill-opacity="1" fill-rule="nonzero"/></g></svg>